<svg xmlns="http://www.w3.org/2000/svg" width="689" height="328.867" viewBox="0 0 689 328.867">
  <g id="Group_2" data-name="Group 2" transform="translate(148 -678)">
    <path id="Union_1" data-name="Union 1" d="M-902.037,249a121.231,121.231,0,0,1-43.463,8A121.5,121.5,0,0,1-1067,135.5,121.5,121.5,0,0,1-945.5,14,121.5,121.5,0,0,1-836.457,81.849a95.491,95.491,0,0,1,48.181,14.5A86.964,86.964,0,0,1-713,53,86.651,86.651,0,0,1-656.66,73.7,83.16,83.16,0,0,1-619.5,65q1.2,0,2.391.034A121.484,121.484,0,0,1-509.5,0,121.5,121.5,0,0,1-388,121.5,121.5,121.5,0,0,1-509.5,243a120.955,120.955,0,0,1-69.208-21.625A83.135,83.135,0,0,1-619.5,232a83.129,83.129,0,0,1-50.016-16.631A86.609,86.609,0,0,1-713,227a86.64,86.64,0,0,1-39.3-9.361,95.3,95.3,0,0,1-61.868,51.951,95.654,95.654,0,0,1-24.776,3.278A95.654,95.654,0,0,1-902.037,249Z" transform="translate(919 678)" fill="#f15474"/>
    <path id="Union_2" data-name="Union 2" d="M-902.037,249a121.231,121.231,0,0,1-43.463,8A121.5,121.5,0,0,1-1067,135.5,121.5,121.5,0,0,1-945.5,14,121.5,121.5,0,0,1-836.457,81.849a95.491,95.491,0,0,1,48.181,14.5A86.964,86.964,0,0,1-713,53,86.651,86.651,0,0,1-656.66,73.7,83.16,83.16,0,0,1-619.5,65q1.2,0,2.391.034A121.484,121.484,0,0,1-509.5,0,121.5,121.5,0,0,1-388,121.5,121.5,121.5,0,0,1-509.5,243a120.955,120.955,0,0,1-69.208-21.625A83.135,83.135,0,0,1-619.5,232a83.129,83.129,0,0,1-50.016-16.631A86.609,86.609,0,0,1-713,227a86.64,86.64,0,0,1-39.3-9.361,95.3,95.3,0,0,1-61.868,51.951,95.654,95.654,0,0,1-24.776,3.278A95.654,95.654,0,0,1-902.037,249Z" transform="translate(924 703)" fill="#f46985"/>
    <path id="Union_3" data-name="Union 3" d="M-902.037,249a121.231,121.231,0,0,1-43.463,8A121.5,121.5,0,0,1-1067,135.5,121.5,121.5,0,0,1-945.5,14,121.5,121.5,0,0,1-836.457,81.849a95.491,95.491,0,0,1,48.181,14.5A86.964,86.964,0,0,1-713,53,86.651,86.651,0,0,1-656.66,73.7,83.16,83.16,0,0,1-619.5,65q1.2,0,2.391.034A121.484,121.484,0,0,1-509.5,0,121.5,121.5,0,0,1-388,121.5,121.5,121.5,0,0,1-509.5,243a120.955,120.955,0,0,1-69.208-21.625A83.135,83.135,0,0,1-619.5,232a83.129,83.129,0,0,1-50.016-16.631A86.609,86.609,0,0,1-713,227a86.64,86.64,0,0,1-39.3-9.361,95.3,95.3,0,0,1-61.868,51.951,95.654,95.654,0,0,1-24.776,3.278A95.654,95.654,0,0,1-902.037,249Z" transform="translate(929 734)" fill="#fa8aa0"/>
  </g>
</svg>
